<svg xmlns="http://www.w3.org/2000/svg" width="1024" height="1024" viewBox="0 0 1024 1024">
<g>
<path d="M 605.50,807.85 C585.66,805.32 564.88,796.59 548.31,783.85 C531.44,770.86 515.18,747.58 509.13,727.78 C505.08,714.50 504.88,708.46 505.24,610.00 L 505.58,515.50 L 508.23,506.39 C514.23,485.81 525.33,468.26 542.41,452.35 C560.19,435.78 584.70,424.44 607.21,422.34 L 614.00,421.71 L 614.00,442.86 C614.00,462.83 613.90,464.00 612.13,464.00 C611.11,464.00 607.07,465.60 603.17,467.55 C595.49,471.39 591.12,475.74 586.42,484.23 L 583.50,489.50 L 583.50,520.50 C583.50,550.61 583.57,551.66 585.82,557.25 C589.04,565.22 596.63,573.24 604.49,576.99 C607.95,578.65 611.51,580.00 612.39,580.00 C613.82,580.00 614.00,582.61 614.00,603.87 C614.00,626.15 614.13,627.90 615.98,630.25 C617.08,631.64 619.10,633.06 620.49,633.41 C623.47,634.16 628.47,631.86 629.97,629.06 C630.59,627.89 631.00,617.82 631.00,603.57 C631.00,581.35 631.11,580.00 632.84,580.00 C633.85,580.00 637.44,578.62 640.81,576.94 C647.91,573.39 653.75,567.25 657.74,559.12 L 660.50,553.50 L 660.50,522.00 L 660.50,490.50 L 657.86,484.88 C653.29,475.12 645.46,467.92 635.92,464.70 L 631.50,463.20 L 631.23,442.47 L 630.96,421.74 L 637.12,422.43 C647.21,423.58 661.89,427.83 671.59,432.42 C684.97,438.75 695.32,446.10 706.03,456.90 C725.29,476.29 736.35,498.72 739.09,523.95 C739.76,530.10 740.00,565.05 739.76,622.00 C739.39,710.27 739.39,710.52 737.12,719.00 C734.48,728.88 725.55,747.66 719.06,756.95 C712.54,766.31 696.79,782.32 689.07,787.45 C664.09,804.06 633.76,811.46 605.50,807.85 M 528.25,522.80 C529.21,521.69 530.00,519.86 530.00,518.75 C530.00,511.79 538.61,491.68 545.54,482.43 C556.54,467.75 574.27,454.37 588.50,449.99 C597.77,447.13 600.10,439.89 592.66,437.06 C590.31,436.17 588.62,436.49 582.33,439.00 C557.86,448.80 536.02,469.16 525.98,491.54 C522.25,499.85 518.00,514.33 518.00,518.71 C518.00,525.36 523.98,527.75 528.25,522.80 M 373.00,771.90 C353.05,770.65 335.09,761.44 320.75,745.11 C313.85,737.25 307.93,726.25 304.80,715.44 L 302.50,707.50 L 302.50,558.50 C302.50,445.46 302.79,408.11 303.71,403.76 C309.08,378.42 327.96,356.95 352.50,348.32 L 360.50,345.50 L 420.95,345.20 C473.59,344.94 482.43,345.11 489.45,346.52 C499.83,348.62 509.34,352.64 517.22,358.26 C535.20,371.10 545.75,389.94 547.58,412.45 C548.22,420.38 548.16,420.78 545.88,422.40 C525.93,436.50 517.51,444.21 507.40,457.64 C499.65,467.93 490.72,486.08 487.54,498.00 C483.15,514.44 482.85,523.11 483.26,624.00 C483.60,707.13 483.84,719.28 485.28,725.00 C488.77,738.95 493.84,751.27 499.78,760.24 C501.38,762.66 501.97,764.43 501.37,765.03 C500.85,765.55 497.07,767.16 492.96,768.62 C486.69,770.84 483.42,771.32 472.50,771.62 C447.44,772.31 382.41,772.49 373.00,771.90 M 426.50,520.54 C440.25,510.61 454.98,500.01 459.23,496.99 C463.49,493.97 466.97,491.27 466.96,491.00 C466.96,490.73 459.54,484.90 450.48,478.07 C441.42,471.23 433.09,464.66 431.99,463.48 L 429.97,461.34 L 448.48,446.58 C458.67,438.46 467.00,431.70 467.00,431.54 C467.00,431.27 457.72,424.77 430.50,406.00 C422.25,400.31 411.79,393.04 407.25,389.85 L 399.00,384.03 L 399.09,409.09 C399.15,422.87 399.00,434.33 398.77,434.56 C398.54,434.79 394.56,432.07 389.93,428.52 C385.29,424.96 381.05,422.06 380.50,422.06 C379.95,422.06 377.48,423.84 375.00,426.01 L 370.50,429.95 L 373.94,432.73 C375.83,434.25 382.36,439.11 388.44,443.53 C395.57,448.71 399.46,452.17 399.38,453.28 C399.31,454.23 399.19,458.99 399.12,463.87 L 399.00,472.74 L 386.38,482.62 C379.44,488.05 372.90,493.18 371.86,494.02 C370.04,495.47 370.18,495.71 374.95,499.27 C377.70,501.32 380.30,502.99 380.72,502.98 C381.15,502.96 385.32,499.81 390.00,495.98 L 398.50,489.00 L 399.20,497.75 C399.59,502.56 399.81,513.99 399.70,523.16 C399.57,534.05 399.85,539.60 400.50,539.20 C401.05,538.86 412.75,530.46 426.50,520.54 M 341.32,392.84 C342.52,392.21 345.75,389.82 348.50,387.53 C351.25,385.25 355.82,381.92 358.66,380.14 C363.75,376.95 365.00,375.39 365.00,372.23 C365.00,369.88 360.98,366.00 358.55,366.00 C355.36,366.00 344.41,372.87 338.38,378.66 C334.03,382.84 333.00,384.45 333.00,387.08 C333.00,390.53 335.37,394.00 337.72,394.00 C338.50,394.00 340.11,393.48 341.32,392.84 M 616.21,559.87 C611.47,558.50 605.60,552.21 604.11,546.90 C603.23,543.75 602.96,535.57 603.18,518.97 C603.49,496.39 603.59,495.36 605.84,491.74 C609.10,486.49 615.79,482.77 621.97,482.77 C628.40,482.77 633.68,485.47 637.73,490.83 L 641.00,495.16 L 641.00,520.51 C641.00,536.00 640.59,546.97 639.94,548.68 C638.42,552.69 634.16,556.95 629.50,559.10 C625.14,561.12 621.31,561.34 616.21,559.87 M 543.35,351.25 C541.63,350.29 538.00,346.80 535.28,343.50 C522.72,328.25 509.77,322.22 495.31,324.89 C487.50,326.33 484.07,327.92 478.00,332.95 C472.29,337.68 469.78,339.00 466.52,339.00 C460.31,339.00 456.00,334.32 456.00,327.60 C456.00,320.49 467.47,310.19 480.98,305.15 C489.77,301.88 506.61,301.03 516.02,303.39 C528.17,306.44 536.50,311.39 546.56,321.53 C556.81,331.87 560.57,338.16 559.59,343.37 C558.89,347.09 555.89,350.34 551.68,351.93 C547.90,353.37 546.99,353.29 543.35,351.25 M 566.38,322.09 C564.66,321.04 561.51,318.07 559.38,315.50 C554.44,309.52 541.43,299.04 534.13,295.15 C517.21,286.13 494.68,284.87 476.44,291.91 C466.12,295.90 458.75,301.17 447.37,312.72 C437.71,322.52 437.04,323.00 433.04,323.00 C423.66,323.00 419.85,312.99 425.84,304.08 C430.22,297.55 442.80,285.29 450.00,280.53 C459.19,274.46 465.57,271.43 475.69,268.32 C483.69,265.87 486.01,265.62 501.00,265.56 C518.78,265.50 525.03,266.64 539.32,272.61 C557.44,280.18 583.00,303.56 583.00,312.56 C583.00,315.95 579.76,320.89 576.52,322.42 C572.20,324.47 570.18,324.41 566.38,322.09 M 399.50,299.84 C394.44,297.06 392.40,289.95 395.14,284.68 C399.24,276.79 418.34,257.93 430.43,249.83 C441.47,242.43 447.99,239.12 459.31,235.12 C485.89,225.75 513.62,225.25 540.38,233.69 C561.36,240.30 578.44,251.02 595.15,268.06 C608.91,282.10 611.89,287.10 610.08,293.14 C608.10,299.74 600.16,302.96 594.11,299.60 C592.79,298.88 588.50,294.62 584.57,290.14 C575.10,279.37 566.64,272.33 554.50,265.13 C536.62,254.51 521.34,250.44 500.00,250.61 C483.34,250.74 471.50,253.55 456.52,260.95 C443.56,267.36 435.83,273.32 420.68,288.57 C409.63,299.71 407.99,301.00 404.92,300.97 C403.04,300.95 400.60,300.44 399.50,299.84 M 370.40,272.60 C367.71,269.91 367.00,268.40 367.00,265.35 C367.01,260.16 369.13,257.00 380.62,245.03 C402.87,221.85 425.49,207.07 451.50,198.72 C470.91,192.48 477.84,191.51 502.50,191.57 C522.36,191.62 525.62,191.88 536.01,194.20 C566.66,201.05 593.02,215.48 616.79,238.44 C637.50,258.45 640.88,265.32 633.60,272.60 C630.84,275.36 629.43,276.00 626.12,276.00 C622.19,276.00 621.47,275.43 606.77,260.75 C589.44,243.44 578.59,235.28 562.50,227.45 C543.13,218.03 528.53,214.32 507.00,213.35 C484.01,212.32 462.84,216.73 441.50,226.99 C426.81,234.06 415.28,242.70 399.50,258.49 C391.80,266.20 384.38,273.28 383.00,274.24 C378.89,277.11 374.31,276.51 370.40,272.60 M 413.65,500.38 C412.74,489.64 412.84,468.22 413.80,467.63 C414.55,467.16 439.23,485.42 439.75,486.83 C439.97,487.44 416.77,507.12 415.04,507.78 C414.63,507.94 414.01,504.61 413.65,500.38 M 413.62,447.75 C412.81,434.46 413.31,417.00 414.50,417.03 C415.97,417.07 440.00,435.23 440.00,436.30 C440.00,436.89 415.38,457.00 414.66,457.00 C414.40,457.00 413.93,452.84 413.62,447.75 Z" fill="rgba(0,0,0,1)"/>
</g>
</svg>